# xmcd CD database file generated by Grip 2.94
# 
# Track frame offsets:
#       150
#       13952
#       25950
#       42715
#       59620
#       78685
#       96232
#       108425
#       125797
#       143982
# 
# Disc length: 2435 seconds
# 
# Revision: 3
# Processed by: cddbd v1.4PL0 Copyright (c) Steve Scherf et al.
# Submitted via: Grip 2.94
# 
DISCID=9909810a
DTITLE=Jennifer Caine - Jennifer Caine
DYEAR=1900
DGENRE=
TTITLE0=Me
TTITLE1=He Who Lives With The Most Love Wins
TTITLE2=Give A Little
TTITLE3=Free
TTITLE4=Surrender
TTITLE5=Family Matters
TTITLE6=Alone
TTITLE7=I Wish
TTITLE8=I Lie Awake
TTITLE9=We Got It Made
EXTD=
EXTT0=
EXTT1=
EXTT2=
EXTT3=
EXTT4=
EXTT5=
EXTT6=
EXTT7=
EXTT8=
EXTT9=
PLAYORDER=
